<?xml version="1.0" standalone="no"?><!DOCTYPE svg PUBLIC "-//W3C//DTD SVG 1.1//EN" "http://www.w3.org/Graphics/SVG/1.1/DTD/svg11.dtd"><svg t="1551014361411" class="icon" style="" viewBox="0 0 1024 1024" version="1.1" xmlns="http://www.w3.org/2000/svg" p-id="1333" xmlns:xlink="http://www.w3.org/1999/xlink" width="200" height="200"><defs><style type="text/css"></style></defs><path d="M793.4 241.8h-20.8V232c0-92.8-74.5-168.3-166-168.3h-376c-91.5 0-166 75.5-166 168.3v381.2c0 92.8 74.5 168.3 166 168.3h20.8v9.8c0 92.8 74.5 168.3 166 168.3h376c91.5 0 166-75.5 166-168.3V410.1c0-92.8-74.5-168.3-166-168.3z m-542 168.3v291.6h-20.8c-48.1 0-87.3-39.7-87.3-88.5V232c0-48.8 39.2-88.6 87.3-88.6h376c48.2 0 87.3 39.7 87.3 88.6v9.8H417.4c-91.5 0-166 75.5-166 168.3z m629.3 381.2c0 48.8-39.2 88.5-87.3 88.5h-376c-48.2 0-87.3-39.7-87.3-88.5V410.1c0-48.8 39.2-88.6 87.3-88.6h376c48.2 0 87.3 39.7 87.3 88.6v381.2z m-118-230.5h-118V441.2c0-21.9-17.7-39.9-39.3-39.9-21.6 0-39.3 17.9-39.3 39.9v119.6h-118c-21.6 0-39.3 18-39.3 39.9s17.7 39.9 39.3 39.9h118v119.6c0 21.9 17.7 39.9 39.3 39.9 21.6 0 39.3-17.9 39.3-39.9V640.5h118c21.6 0 39.3-17.9 39.3-39.9 0.1-21.9-17.6-39.8-39.3-39.8z" p-id="1334"></path></svg>