<?xml version="1.0" standalone="no"?><!DOCTYPE svg PUBLIC "-//W3C//DTD SVG 1.1//EN" "http://www.w3.org/Graphics/SVG/1.1/DTD/svg11.dtd"><svg t="1548423666516" class="icon" style="" viewBox="0 0 1024 1024" version="1.1" xmlns="http://www.w3.org/2000/svg" p-id="2732" xmlns:xlink="http://www.w3.org/1999/xlink" width="200" height="200"><defs><style type="text/css"></style></defs><path d="M256 205.824m-83.968 0a83.968 83.968 0 1 0 167.936 0 83.968 83.968 0 1 0-167.936 0Z" p-id="2733"></path><path d="M389.12 614.4V392.192c0-23.04-18.432-41.472-41.472-41.472H164.864c-23.04 0-41.472 18.432-41.472 41.472V614.4c0 23.04 18.432 41.472 41.472 41.472H179.2v244.736c0 11.264 9.216 20.48 20.48 20.48h16.384c11.264 0 20.48-9.216 20.48-20.48v-244.736H276.48v244.736c0 11.264 9.216 20.48 20.48 20.48h16.384c11.264 0 20.48-9.216 20.48-20.48v-244.736H348.16c22.528 0 40.96-18.432 40.96-41.472z" p-id="2734"></path><path d="M833.024 211.968H350.208c0 33.28-18.944 62.464-46.08 77.824l1.024 49.152H358.4c24.576 0 44.544 19.968 44.544 44.032v237.568c0 24.576-19.968 44.032-44.544 44.032h-15.36v27.136h489.984c27.136 0 49.152-16.896 49.152-37.888V249.856c0-20.992-22.016-37.888-49.152-37.888z m-296.448 348.672h-56.32c-12.8 0-23.04-10.24-23.04-23.04s10.24-23.04 23.04-23.04h56.32c12.8 0 23.04 10.24 23.04 23.04s-10.24 23.04-23.04 23.04z m61.44-87.04h-117.76c-12.8 0-23.04-10.24-23.04-23.04s10.24-23.04 23.04-23.04h117.76c12.8 0 23.04 10.24 23.04 23.04s-10.24 23.04-23.04 23.04z m-117.76-87.04c-12.8 0-23.04-10.24-23.04-23.04s10.24-23.04 23.04-23.04h168.96c12.8 0 23.04 10.24 23.04 23.04s-10.24 23.04-23.04 23.04h-168.96z m232.96 155.136l-43.008 26.112c-2.048 1.024-4.608 0-4.608-2.56l-1.024-50.176c0-2.56 2.56-4.096 4.608-2.56l44.032 24.576c1.536 0.512 1.536 3.584 0 4.608z m86.528-150.016l-74.752 134.656c-1.536 2.56-5.12 3.584-7.68 2.048l-44.032-24.576c-2.56-1.536-3.584-5.12-2.048-7.68l74.752-134.656c1.536-2.56 5.12-3.584 7.68-2.048l44.032 24.576c2.56 1.536 3.584 5.12 2.048 7.68z m6.144-11.264L752.64 350.72c8.192-14.848 26.624-19.968 41.472-11.776 14.336 8.192 19.456 26.624 11.776 41.472z" p-id="2735"></path></svg>