<?xml version="1.0" standalone="no"?><!DOCTYPE svg PUBLIC "-//W3C//DTD SVG 1.1//EN" "http://www.w3.org/Graphics/SVG/1.1/DTD/svg11.dtd"><svg t="1548424344047" class="icon" style="" viewBox="0 0 1024 1024" version="1.1" xmlns="http://www.w3.org/2000/svg" p-id="592" xmlns:xlink="http://www.w3.org/1999/xlink" width="200" height="200"><defs><style type="text/css"></style></defs><path d="M514.275104 1023.796879C557.502083 1021.521775 592.766198 1001.045837 598.453959 974.882139L424.408489 983.982556C433.508906 1009.008702 469.910573 1026.071983 514.275104 1023.796879L514.275104 1023.796879Z" p-id="593"></path><path d="M653.056459 825.862815 368.668437 840.650993C358.430468 840.650993 350.467604 849.751409 351.605156 859.989378 351.605156 870.227347 360.705572 877.052659 369.805989 877.052659L370.943541 877.052659 655.331563 862.264482C665.569532 862.264482 673.532396 853.164066 672.394844 842.926097 672.394844 832.688128 663.294428 824.725263 653.056459 825.862815L653.056459 825.862815Z" p-id="594"></path><path d="M653.056459 870.227347 368.668437 885.015524C358.430468 885.015524 350.467604 894.115941 351.605156 904.35391 351.605156 914.591878 360.705572 921.417191 369.805989 921.417191L370.943541 921.417191 655.331563 906.629014C665.569532 906.629014 673.532396 897.528597 672.394844 887.290628 672.394844 877.052659 663.294428 869.089795 653.056459 870.227347L653.056459 870.227347Z" p-id="595"></path><path d="M653.056459 914.591878 368.668437 929.380055C358.430468 929.380055 350.467604 938.480472 351.605156 948.718441 351.605156 958.95641 360.705572 965.781722 369.805989 965.781722L370.943541 965.781722 655.331563 950.993545C665.569532 950.993545 673.532396 941.893128 672.394844 931.65516 672.394844 922.554743 663.294428 914.591878 653.056459 914.591878L653.056459 914.591878Z" p-id="596"></path><path d="M512 200.209167C361.843124 200.209167 240.125051 325.339897 240.125051 480.046981 240.125051 553.987867 267.426301 622.240992 317.478593 675.70594 334.541874 693.906773 337.954531 720.070471 341.367187 745.096617 344.779843 776.948076 349.330051 807.661982 384.594166 813.349743L384.594166 813.349743 385.731718 813.349743 385.731718 813.349743 638.268282 813.349743C674.669949 808.799534 679.220157 778.085628 682.632813 745.096617 686.045469 720.070471 688.320574 693.906773 706.521407 675.70594 756.573699 623.378544 783.874949 553.987867 783.874949 480.046981 783.874949 325.339897 662.156876 200.209167 512 200.209167L512 200.209167ZM703.108751 671.155732C684.907917 690.494117 681.495261 718.932919 678.082605 742.821513 674.669949 774.672972 671.257292 801.974222 638.268282 806.52443L638.268282 794.011357 560.91474 794.011357 554.089427 676.843492 543.851458 676.843492 543.851458 608.590367 512 608.590367 480.148542 608.590367 480.148542 676.843492 469.910573 676.843492 463.08526 794.011357 385.731718 794.011357 385.731718 807.661982C353.88026 803.111774 350.467604 775.810524 347.054947 743.959065 343.642291 718.932919 340.229635 691.631669 322.028801 672.293284 273.114062 621.10344 245.812812 552.850314 245.812812 480.046981 244.675259 327.615001 364.118229 204.759376 512 204.759376 659.881771 204.759376 779.324741 327.615001 779.324741 480.046981 779.324741 551.712762 752.02349 619.965888 703.108751 671.155732L703.108751 671.155732Z" p-id="597"></path><path d="M683.770365 440.232658C686.045469 433.407345 687.183021 426.582033 687.183021 419.75672 687.183021 377.667293 651.918907 344.678282 607.554375 344.678282 604.141719 344.678282 600.729063 344.678282 597.316407 345.815835 587.078438 315.101928 556.364531 293.488439 522.237969 293.488439 491.524062 293.488439 463.08526 310.55172 450.572187 336.715418 443.746875 334.440314 436.921562 334.440314 428.958698 334.440314 385.731718 334.440314 349.330051 368.566876 349.330051 409.518751 349.330051 416.344064 350.467604 424.306929 352.742708 431.132241 322.028801 442.507762 301.552864 472.084116 301.552864 503.935575 301.552864 547.162554 337.954531 582.426669 383.456614 582.426669 401.657448 582.426669 418.720729 576.738908 432.371354 566.50094 452.847291 582.426669 480.148542 591.527085 509.724896 591.527085 540.438802 591.527085 570.015156 581.289117 589.353542 564.225835 604.141719 575.601356 621.205 582.426669 640.543386 582.426669 683.770365 582.426669 720.172032 548.300106 720.172032 507.348231 721.309584 478.909429 707.658959 453.883283 683.770365 440.232658L683.770365 440.232658ZM642.81849 575.601356C624.617657 575.601356 607.554375 568.776044 593.90375 557.400523L591.628646 556.262971 589.353542 557.400523C570.015156 574.463804 541.576354 584.701773 510.862448 584.701773 481.286094 584.701773 453.984844 575.601356 434.646458 559.675627L433.508906 558.538075 432.371354 559.675627C418.720729 569.913596 401.657448 575.601356 384.594166 575.601356 341.367187 575.601356 307.240624 542.612346 307.240624 501.660471 307.240624 470.946564 327.716562 443.645314 357.292916 433.407345L359.56802 432.269793 358.430468 429.994689C356.155364 423.169377 355.017812 415.206512 355.017812 408.381199 355.017812 369.704428 388.006822 337.85297 430.09625 337.85297 436.921562 337.85297 444.884427 338.990522 451.709739 341.265626L453.984844 341.265626 455.122396 338.990522C466.497917 312.826824 493.799167 296.901095 523.375521 296.901095 556.364531 296.901095 585.940886 317.377032 595.041302 348.090939L596.178854 350.366043 598.453959 350.366043C603.004167 349.228491 606.416823 349.228491 609.82948 349.228491 650.781355 349.228491 684.907917 381.079949 684.907917 419.75672 684.907917 426.582033 683.770365 434.544897 681.495261 441.37021L680.357709 443.645314 681.495261 444.782866C704.246303 457.295939 717.896928 481.184533 717.896928 506.210679 716.759376 543.749898 683.770365 575.601356 642.81849 575.601356L642.81849 575.601356Z" p-id="598"></path><path d="M389.144375 417.481616C389.144375 417.481616 411.895416 417.481616 428.958698 403.830991 432.371354 404.968543 440.334218 408.381199 443.746875 415.206512 444.884427 416.344064 446.021979 417.481616 448.297083 417.481616L450.572187 417.481616C452.847291 416.344064 453.984844 414.06896 452.847291 411.793856 449.434635 403.830991 442.609323 399.280783 436.921562 397.005679 441.471771 391.317918 446.021979 385.630158 448.297083 377.667293 449.434635 375.392189 448.297083 373.117085 444.884427 371.979533 442.609323 370.841981 440.334218 371.979533 439.196666 375.392189 427.821146 409.518751 390.281927 409.518751 389.144375 409.518751 386.86927 409.518751 384.594166 411.793856 384.594166 414.06896 384.594166 416.344064 386.86927 417.481616 389.144375 417.481616L389.144375 417.481616Z" p-id="599"></path><path d="M423.270937 502.798023C410.757864 501.660471 400.519895 509.623335 394.832135 515.311096 381.18151 503.935575 350.467604 502.798023 347.054947 502.798023L347.054947 502.798023C344.779843 502.798023 342.504739 505.073127 342.504739 507.348231 342.504739 509.623335 344.779843 511.898439 347.054947 511.898439 360.705572 511.898439 383.456614 515.311096 390.281927 523.27396 389.144375 527.824169 385.731718 542.612346 376.631302 542.612346 374.356197 542.612346 372.081093 544.88745 372.081093 547.162554 372.081093 549.437658 374.356197 551.712762 376.631302 551.712762L377.768854 551.712762C393.694583 551.712762 399.382343 534.649481 400.519895 523.27396 402.795 519.861304 413.032968 510.760887 423.270937 511.898439 425.546041 511.898439 427.821146 510.760887 428.958698 508.485783 426.683593 505.073127 425.546041 502.798023 423.270937 502.798023L423.270937 502.798023Z" p-id="600"></path><path d="M593.90375 420.894272C593.90375 417.481616 596.178854 415.206512 599.591511 412.931408 601.866615 411.793856 601.866615 408.381199 600.729063 406.106095 599.591511 403.830991 596.178854 403.830991 593.90375 404.968543 588.21599 409.518751 585.940886 414.06896 584.803334 419.75672 584.803334 424.306929 585.940886 428.857137 587.078438 432.269793 577.978021 432.269793 568.877604 434.544897 562.052292 439.095106 554.089427 444.782866 549.539219 451.608179 546.126563 458.433491 537.026146 443.645314 526.788177 435.682449 514.275104 433.407345 496.074271 431.132241 480.148542 443.645314 474.460781 449.333075 460.810156 443.645314 448.297083 444.782866 439.196666 450.470627 424.408489 459.571043 423.270937 480.046981 423.270937 480.046981 423.270937 482.322085 425.546041 484.597189 427.821146 484.597189L427.821146 484.597189C430.09625 484.597189 432.371354 482.322085 432.371354 480.046981 432.371354 480.046981 433.508906 464.121252 444.884427 457.295939 451.709739 452.745731 461.947708 453.883283 474.460781 458.433491 476.735885 459.571043 477.873437 458.433491 480.148542 457.295939 480.148542 457.295939 496.074271 439.095106 514.275104 442.507762 525.650625 443.645314 535.888594 453.883283 544.989011 470.946564 546.126563 473.221668 547.264115 473.221668 549.539219 473.221668 551.814323 473.221668 552.951875 470.946564 552.951875 469.809012 552.951875 469.809012 556.364531 453.883283 567.740052 445.920418 574.565365 441.37021 584.803334 439.095106 596.178854 442.507762 598.453959 442.507762 599.591511 442.507762 600.729063 440.232658 601.866615 437.957554 601.866615 436.820002 599.591511 434.544897 600.729063 435.682449 593.90375 427.719585 593.90375 420.894272L593.90375 420.894272Z" p-id="601"></path><path d="M570.015156 361.741564C571.152709 367.429324 572.290261 375.392189 577.978021 379.942397 581.390677 383.355053 585.940886 384.492606 591.628646 384.492606 593.90375 384.492606 595.041302 384.492606 597.316407 383.355053 599.591511 383.355053 601.866615 379.942397 600.729063 377.667293 600.729063 375.392189 597.316407 373.117085 595.041302 374.254637 589.353542 375.392189 585.940886 374.254637 582.528229 371.979533 577.978021 367.429324 576.840469 358.328908 576.840469 354.916251 576.840469 353.778699 576.840469 352.641147 575.702917 351.503595 574.565365 350.366043 573.427813 350.366043 572.290261 350.366043 532.475938 358.328908 519.962865 337.85297 519.962865 336.715418 518.825313 334.440314 515.412656 333.302762 513.137552 334.440314 510.862448 335.577866 509.724896 338.990522 510.862448 341.265626 513.137552 343.54073 526.788177 367.429324 570.015156 361.741564L570.015156 361.741564Z" p-id="602"></path><path d="M534.751042 551.712762C529.063281 551.712762 521.100417 549.437658 518.825313 544.88745 516.550208 540.337242 519.962865 532.374377 521.100417 530.099273 522.237969 528.961721 522.237969 527.824169 521.100417 525.549064 521.100417 524.411512 519.962865 523.27396 517.68776 523.27396 501.762031 518.723752 502.899583 500.522918 502.899583 500.522918 502.899583 498.247814 500.624479 495.97271 498.349375 495.97271 496.074271 495.97271 493.799167 498.247814 493.799167 500.522918 493.799167 508.485783 496.074271 523.27396 509.724896 531.236825 507.449792 535.787033 506.31224 543.749898 509.724896 550.57521 513.137552 557.400523 521.100417 561.950731 533.61349 563.088283L533.61349 563.088283C535.888594 563.088283 538.163698 560.813179 538.163698 558.538075 538.163698 553.987867 537.026146 551.712762 534.751042 551.712762L534.751042 551.712762Z" p-id="603"></path><path d="M687.183021 494.835158C684.907917 493.697606 682.632813 494.835158 681.495261 497.110262 672.394844 520.998856 642.81849 516.448648 641.680938 515.311096 639.405834 515.311096 637.13073 516.448648 635.993178 518.723752 633.718073 530.099273 623.480105 533.511929 623.480105 533.511929 621.205 534.649481 620.067448 536.924585 620.067448 539.199689 621.205 541.474794 622.342552 542.612346 624.617657 542.612346L625.755209 542.612346C626.892761 542.612346 639.405834 538.062137 643.956042 524.411512 657.606667 525.549064 681.495261 522.136408 689.458126 499.385366 690.595678 499.385366 689.458126 495.97271 687.183021 494.835158L687.183021 494.835158Z" p-id="604"></path><path d="M635.993178 459.571043 635.993178 459.571043 637.13073 460.708595C637.13073 460.708595 656.469115 472.084116 650.781355 484.597189 649.643803 486.872293 650.781355 489.147398 653.056459 490.28495L655.331563 490.28495C657.606667 490.28495 658.744219 489.147398 659.881771 488.009846 666.707084 473.221668 654.194011 461.846148 647.368698 456.158387 653.056459 450.470627 663.294428 439.095106 659.881771 424.306929 659.881771 422.031824 656.469115 419.75672 654.194011 420.894272 651.918907 420.894272 649.643803 424.306929 650.781355 426.582033 653.056459 436.820002 643.956042 445.920418 639.405834 450.470627 626.892761 440.232658 605.279271 448.195522 604.141719 448.195522 601.866615 449.333075 600.729063 451.608179 601.866615 453.883283 603.004167 456.158387 605.279271 457.295939 607.554375 456.158387 613.242136 455.020835 629.167865 451.608179 635.993178 459.571043L635.993178 459.571043Z" p-id="605"></path><path d="M539.30125 0 484.69875 0 512 188.833647 539.30125 0Z" p-id="606"></path><path d="M283.35203 53.464948 234.437291 81.90375 353.88026 232.060626 283.35203 53.464948Z" p-id="607"></path><path d="M59.254269 277.562709 237.849947 348.090939 87.693071 228.64797 59.254269 277.562709Z" p-id="608"></path><path d="M5.789321 478.909429 5.789321 533.511929 194.622968 506.210679 5.789321 478.909429Z" p-id="609"></path><path d="M87.693071 783.773388 237.849947 664.330419 59.254269 734.858648 87.693071 783.773388Z" p-id="610"></path><path d="M936.306929 783.773388 964.745731 734.858648 786.150053 664.330419 936.306929 783.773388Z" p-id="611"></path><path d="M829.377032 506.210679 1018.210679 533.511929 1018.210679 478.909429 829.377032 506.210679Z" p-id="612"></path><path d="M964.745731 277.562709 936.306929 228.64797 786.150053 348.090939 964.745731 277.562709Z" p-id="613"></path><path d="M740.64797 53.464948 670.11974 232.060626 789.562709 81.90375 740.64797 53.464948Z" p-id="614"></path></svg>